<svg id="Layer_1" data-name="Layer 1" xmlns="http://www.w3.org/2000/svg" viewBox="0 0 613.26 613.26"><defs><style>.cls-1{fill:none;stroke:#000;stroke-linecap:round;stroke-linejoin:round;stroke-width:1.5px;}.cls-2{fill:#f7941d;}</style></defs><title>90Hybrid_RT5880_24G</title><g id="LWPOLYLINE"><rect class="cls-1" x="0.75" y="0.75" width="611.76" height="611.76"/></g><g id="LWPOLYLINE-2" data-name="LWPOLYLINE"><path class="cls-2" d="M364,396a58,58,0,0,0-58-58v21.41A36.64,36.64,0,0,1,342.64,396Z" transform="translate(0.63 -89.37)"/></g><g id="LWPOLYLINE-3" data-name="LWPOLYLINE"><path class="cls-2" d="M248,396a58,58,0,0,0,58,58V432.64A36.64,36.64,0,0,1,269.36,396Z" transform="translate(0.63 -89.37)"/></g><g id="LWPOLYLINE-4" data-name="LWPOLYLINE"><path class="cls-2" d="M306,461.7A65.7,65.7,0,0,0,371.7,396H335a29,29,0,0,1-29,29Z" transform="translate(0.63 -89.37)"/></g><g id="LWPOLYLINE-5" data-name="LWPOLYLINE"><path class="cls-2" d="M306,330.3A65.7,65.7,0,0,0,240.3,396H277a29,29,0,0,1,29-29Z" transform="translate(0.63 -89.37)"/></g><g id="LWPOLYLINE-6" data-name="LWPOLYLINE"><rect class="cls-2" x="353.98" y="295.93" width="258.54" height="21.41"/></g><g id="LWPOLYLINE-7" data-name="LWPOLYLINE"><rect class="cls-2" x="295.93" y="0.75" width="21.41" height="258.54"/></g><g id="LWPOLYLINE-8" data-name="LWPOLYLINE"><rect class="cls-2" x="0.75" y="295.93" width="258.54" height="21.41"/></g><g id="LWPOLYLINE-9" data-name="LWPOLYLINE"><rect class="cls-2" x="295.93" y="353.98" width="21.41" height="258.54"/></g></svg>