<svg id="Layer_1" data-name="Layer 1" xmlns="http://www.w3.org/2000/svg" viewBox="0 0 613.26 613.26"><defs><style>.cls-1{fill:none;stroke:#000;stroke-linecap:round;stroke-linejoin:round;stroke-width:1.5px;}.cls-2{fill:#f7941d;}</style></defs><title>90Hybrid_RO4350_24G</title><g id="LWPOLYLINE"><rect class="cls-1" x="0.75" y="0.75" width="611.76" height="611.76"/></g><g id="LWPOLYLINE-2" data-name="LWPOLYLINE"><path class="cls-2" d="M398.91,396A92.91,92.91,0,0,0,306,303.09V330a66,66,0,0,1,66,66Z" transform="translate(0.63 -89.37)"/></g><g id="LWPOLYLINE-3" data-name="LWPOLYLINE"><path class="cls-2" d="M306,277.4A118.6,118.6,0,0,0,187.4,396H265.7A40.3,40.3,0,0,1,306,355.7Z" transform="translate(0.63 -89.37)"/></g><g id="LWPOLYLINE-4" data-name="LWPOLYLINE"><path class="cls-2" d="M306,514.6A118.6,118.6,0,0,0,424.6,396H346.3A40.3,40.3,0,0,1,306,436.3Z" transform="translate(0.63 -89.37)"/></g><g id="LWPOLYLINE-5" data-name="LWPOLYLINE"><path class="cls-2" d="M213.09,396A92.91,92.91,0,0,0,306,488.91V462a66,66,0,0,1-66-66Z" transform="translate(0.63 -89.37)"/></g><g id="LWPOLYLINE-6" data-name="LWPOLYLINE"><rect class="cls-2" x="285.83" y="0.75" width="41.6" height="239.89"/></g><g id="LWPOLYLINE-7" data-name="LWPOLYLINE"><rect class="cls-2" x="0.75" y="285.83" width="239.89" height="41.6"/></g><g id="LWPOLYLINE-8" data-name="LWPOLYLINE"><rect class="cls-2" x="285.83" y="372.62" width="41.6" height="239.89"/></g><g id="LWPOLYLINE-9" data-name="LWPOLYLINE"><rect class="cls-2" x="372.62" y="285.83" width="239.89" height="41.6"/></g></svg>