<svg id="Layer_1" data-name="Layer 1" xmlns="http://www.w3.org/2000/svg" viewBox="0 0 613.26 613.26"><defs><style>.cls-1{fill:#f7941d;}.cls-2{fill:none;stroke:#000;stroke-linecap:round;stroke-linejoin:round;stroke-width:1.5px;}.cls-3{fill:#fff;}</style></defs><title>DCGround_RO3006_24G</title><g id="CIRCLE"><path class="cls-1" d="M390.69,334.82a21.75,21.75,0,1,1,21.75,21.75,21.75,21.75,0,0,1-21.75-21.75Z" transform="translate(0.63 -89.37)"/></g><g id="LWPOLYLINE"><rect class="cls-2" x="0.75" y="0.75" width="611.76" height="611.76"/></g><g id="LWPOLYLINE-2" data-name="LWPOLYLINE"><rect class="cls-1" x="296.84" y="0.75" width="19.58" height="611.76"/></g><g id="LWPOLYLINE-3" data-name="LWPOLYLINE"><rect class="cls-1" x="306.63" y="303.57" width="128.47" height="12.24"/></g><g id="LWPOLYLINE-4" data-name="LWPOLYLINE"><rect class="cls-1" x="406.96" y="245.46" width="12.24" height="61.18"/></g><g id="LWPOLYLINE-5" data-name="LWPOLYLINE"><path class="cls-1" d="M441.07,444.68A55.06,55.06,0,0,0,474,374.11l-51.74,18.83Z" transform="translate(0.63 -89.37)"/></g><g id="CIRCLE-2" data-name="CIRCLE"><path class="cls-3" d="M401.57,334.82a10.88,10.88,0,1,1,10.88,10.88,10.88,10.88,0,0,1-10.88-10.88Z" transform="translate(0.63 -89.37)"/></g></svg>