<svg id="Layer_1" data-name="Layer 1" xmlns="http://www.w3.org/2000/svg" viewBox="0 0 613.26 613.26"><defs><style>.cls-1{fill:none;stroke:#000;stroke-linecap:round;stroke-linejoin:round;stroke-width:1.5px;}.cls-2{fill:#f7941d;}.cls-3{fill:#fff;}</style></defs><title>DCGround_RT5880_24G</title><g id="LWPOLYLINE"><rect class="cls-1" x="0.75" y="0.75" width="611.76" height="611.76"/></g><g id="LWPOLYLINE-2" data-name="LWPOLYLINE"><rect class="cls-2" x="295.93" y="0.75" width="21.41" height="611.76"/></g><g id="LWPOLYLINE-3" data-name="LWPOLYLINE"><rect class="cls-2" x="306.63" y="302.04" width="100.94" height="9.18"/></g><g id="LWPOLYLINE-4" data-name="LWPOLYLINE"><path class="cls-2" d="M394.71,396l36.77,36.77a52,52,0,0,0,0-73.54Z" transform="translate(0.63 -89.37)"/></g><g id="CIRCLE"><path class="cls-2" d="M391.65,441.88a9.18,9.18,0,1,1,9.18,9.18,9.18,9.18,0,0,1-9.18-9.18Z" transform="translate(0.63 -89.37)"/></g><g id="LWPOLYLINE-5" data-name="LWPOLYLINE"><rect class="cls-2" x="396.87" y="306.63" width="9.18" height="45.88"/></g><g id="CIRCLE-2" data-name="CIRCLE"><path class="cls-3" d="M396.24,441.88a4.59,4.59,0,1,1,4.59,4.59,4.59,4.59,0,0,1-4.59-4.59Z" transform="translate(0.63 -89.37)"/></g></svg>