<svg id="Layer_1" data-name="Layer 1" xmlns="http://www.w3.org/2000/svg" viewBox="0 0 613.26 531.59"><defs><style>.cls-1{fill:none;stroke:#000;stroke-linecap:round;stroke-linejoin:round;stroke-width:1.5px;}.cls-2{fill:#f7941d;}.cls-3{fill:#fff;}</style></defs><title>RatRace_RT5880_24G</title><g id="LWPOLYLINE"><rect class="cls-1" x="0.75" y="0.75" width="611.76" height="530.09"/></g><g id="CIRCLE"><path class="cls-2" d="M234.42,396A71.58,71.58,0,1,1,306,467.58,71.58,71.58,0,0,1,234.42,396Z" transform="translate(0.63 -89.37)"/></g><g id="CIRCLE-2" data-name="CIRCLE"><path class="cls-3" d="M246.65,396A59.35,59.35,0,1,1,306,455.35,59.35,59.35,0,0,1,246.65,396Z" transform="translate(0.63 -89.37)"/></g><g id="LWPOLYLINE-2" data-name="LWPOLYLINE"><rect class="cls-2" x="372.1" y="295.93" width="240.42" height="21.41"/></g><g id="LWPOLYLINE-3" data-name="LWPOLYLINE"><rect class="cls-2" x="278.63" y="224.5" width="240.42" height="21.41" transform="translate(-3.64 373.64) rotate(-60)"/></g><g id="LWPOLYLINE-4" data-name="LWPOLYLINE"><rect class="cls-2" x="202.46" y="114.99" width="21.41" height="240.42" transform="translate(-88.41 48.73) rotate(-30)"/></g><g id="LWPOLYLINE-5" data-name="LWPOLYLINE"><rect class="cls-2" x="0.75" y="295.93" width="240.42" height="21.41"/></g></svg>