<svg id="Layer_1" data-name="Layer 1" xmlns="http://www.w3.org/2000/svg" viewBox="0 0 529.6 669.66"><defs><style>.cls-1{fill:none;stroke:#000;stroke-linecap:round;stroke-linejoin:round;stroke-width:1.5px;}.cls-2{fill:#f7941d;}</style></defs><title>Wilkinson180Degree_RO3006_24G</title><g id="LWPOLYLINE"><rect class="cls-1" x="0.75" y="0.75" width="528.1" height="668.16"/></g><g id="LWPOLYLINE-2" data-name="LWPOLYLINE"><rect class="cls-2" x="256.35" y="437.42" width="16.9" height="231.5"/></g><g id="LWPOLYLINE-3" data-name="LWPOLYLINE"><path class="cls-2" d="M295.44,501.17v-7.82a36.25,36.25,0,1,0,21.12,0v7.82a28.86,28.86,0,1,1-21.12,0Z" transform="translate(-41.2 -123.16)"/></g><g id="LWPOLYLINE-4" data-name="LWPOLYLINE"><path class="cls-2" d="M327,444.55l-10.46,25.24v27.44a32.55,32.55,0,0,1,16.9,13.31V462L460.54,334.93H570.05V318H468.32l-25.24,10.46Z" transform="translate(-41.2 -123.16)"/></g><g id="LWPOLYLINE-5" data-name="LWPOLYLINE"><path class="cls-2" d="M295.44,469.79,285,444.55,168.92,328.48,143.68,318H41.95v16.9H151.46L278.54,462v48.54a32.55,32.55,0,0,1,16.9-13.31Z" transform="translate(-41.2 -123.16)"/></g></svg>