<svg id="Layer_1" data-name="Layer 1" xmlns="http://www.w3.org/2000/svg" viewBox="0 0 613.26 613.26"><defs><style>.cls-1{fill:none;stroke:#000;stroke-linecap:round;stroke-linejoin:round;stroke-width:1.5px;}.cls-2{fill:#f7941d;}</style></defs><title>Wilkinson90Degree_RO3006_24G</title><g id="LWPOLYLINE"><rect class="cls-1" x="0.75" y="0.75" width="611.76" height="611.76"/></g><g id="LWPOLYLINE-2" data-name="LWPOLYLINE"><rect class="cls-2" x="296.84" y="345.81" width="19.58" height="266.7"/></g><g id="LWPOLYLINE-3" data-name="LWPOLYLINE"><path class="cls-2" d="M293.76,363.32v-9a43.46,43.46,0,1,0,24.47,0v9a34.9,34.9,0,1,1-24.47,0Z" transform="translate(0.63 -89.37)"/></g><g id="LWPOLYLINE-4" data-name="LWPOLYLINE"><path class="cls-2" d="M342.71,310.33,318.24,334.8v24a39.18,39.18,0,0,1,19.58,14.35V329.9H611.88V310.33Z" transform="translate(0.63 -89.37)"/></g><g id="LWPOLYLINE-5" data-name="LWPOLYLINE"><path class="cls-2" d="M293.76,334.8l-24.47-24.47H.12V329.9H274.19v43.23a39.18,39.18,0,0,1,19.58-14.35Z" transform="translate(0.63 -89.37)"/></g></svg>